# xmcd
#
# Track frame offsets:
#	150
#	34812
#	64690
#	114582
#	149770
#	203205
#	218557
#	235670
#	287177
#	309495
#
# Disc length: 4389 seconds
#
# Revision: 1
# Processed by: cddbd v1.4PL0 Copyright (c) Steve Scherf et al.
# Submitted via: audiograbber 1.81.02
#
DISCID=9711230a
DTITLE=Roger Nyquist - At Home With Roger Nyquist
DYEAR=1900
DGENRE=organ
TTITLE0=Lsymphony No. 2 In 3 Minor Op. 20 Allegrao
TTITLE1=Arabesque Op. 31
TTITLE2=Concerto No. 2 In Bb Major Op. 4
TTITLE3=Two Choral Preludes (Bach)
TTITLE4=Fantasie And Fugue In G Minor S 542
TTITLE5=Noel Etranger
TTITLE6=Prelude On Brother Jame's Air
TTITLE7=Sonata No 3 In A Major Op 65
TTITLE8=Arabesques
TTITLE9=Ewquisses Byzantines
EXTD=
EXTT0=
EXTT1=
EXTT2=
EXTT3=
EXTT4=
EXTT5=
EXTT6=
EXTT7=
EXTT8=
EXTT9=
PLAYORDER=
